<svg width="16" height="17" viewBox="0 0 16 17" fill="none" xmlns="http://www.w3.org/2000/svg">
<path d="M13.8556 12.9839L10 6.55579V2.99829H10.5C10.6326 2.99829 10.7598 2.94561 10.8536 2.85184C10.9473 2.75808 11 2.6309 11 2.49829C11 2.36568 10.9473 2.23851 10.8536 2.14474C10.7598 2.05097 10.6326 1.99829 10.5 1.99829H5.50001C5.36741 1.99829 5.24023 2.05097 5.14646 2.14474C5.05269 2.23851 5.00001 2.36568 5.00001 2.49829C5.00001 2.6309 5.05269 2.75808 5.14646 2.85184C5.24023 2.94561 5.36741 2.99829 5.50001 2.99829H6.00001V6.55579L2.14439 12.9839C2.05345 13.1355 2.00434 13.3085 2.00204 13.4853C1.99974 13.6621 2.04435 13.8363 2.13131 13.9902C2.21827 14.1441 2.34449 14.2722 2.49709 14.3615C2.64969 14.4507 2.82323 14.4979 3.00001 14.4983H13C13.177 14.4983 13.3507 14.4513 13.5036 14.3622C13.6565 14.2731 13.7829 14.145 13.8701 13.991C13.9573 13.837 14.0021 13.6627 13.9999 13.4858C13.9977 13.3088 13.9485 13.1357 13.8575 12.9839H13.8556ZM8.22564 10.302C7.23126 9.79892 6.28501 9.53204 5.39939 9.50142L6.92876 6.95142C6.97553 6.8739 7.00017 6.78507 7.00001 6.69454V2.99829H9.00001V6.69454C8.99986 6.78507 9.0245 6.8739 9.07126 6.95142L11.46 10.9358C10.7125 11.082 9.64314 11.0195 8.22564 10.302Z" fill="#8472FF"/>
</svg>
