<svg width="360" height="71" viewBox="0 0 360 71" fill="none" xmlns="http://www.w3.org/2000/svg">
<path d="M0.760177 59.233L15.0392 19.2412H23.9501L38.1754 59.233H30.3649L27.1709 49.6779H11.6573L8.38279 59.233H0.760177ZM13.6435 43.8536H25.2384L23.3596 38.2172C22.1786 34.5401 20.9977 30.7019 19.4946 25.656C17.9916 30.7019 16.7838 34.5401 15.576 38.2172L13.6435 43.8536ZM48.2941 43.2094V59.233H41.5304V30.8898H48.1868V35.2379C50.1193 32.0439 52.9912 30.3262 56.883 30.3262C62.8147 30.3262 67.0017 34.2448 67.0017 41.5185V59.233H60.2112V42.5921C60.2112 38.4319 58.1176 36.2578 54.4942 36.2578C50.9513 36.2578 48.2941 38.3782 48.2941 43.2094ZM81.6833 59.6893C76.0469 59.6893 71.8866 56.8443 71.8866 51.181C71.8866 44.7393 77.1742 43.1558 83.0253 42.5384C88.286 41.948 90.0843 41.8674 90.0843 39.9349V39.7202C90.0843 37.3046 88.1518 35.5868 84.9041 35.5868C81.6028 35.5868 79.4019 37.3046 79.214 39.6934H72.6919C73.0139 34.0569 77.6304 30.3262 85.0383 30.3262C92.4194 30.3262 96.7943 34.0033 96.7943 39.9081V59.233H90.138V55.2338H90.0306C88.6886 57.7568 86.2998 59.6893 81.6833 59.6893ZM83.3474 54.6702C87.776 54.6702 90.1111 52.0399 90.1111 48.7385V45.6787C89.2791 46.2155 86.6487 46.645 83.8574 47.0744C80.9586 47.5039 78.4893 48.5506 78.4893 51.1273C78.4893 53.355 80.395 54.6702 83.3474 54.6702ZM109.543 19.2412V59.233H102.78V19.2412H109.543ZM116.441 70.4522V64.95H119.796C121.622 64.95 122.48 64.0374 123.286 61.8097L124.332 59.072L113.408 30.8898H120.575L125.782 45.6519C126.48 47.7454 127.177 49.839 127.822 51.9325C128.466 49.839 129.137 47.7454 129.861 45.6519L135.042 30.8898H142.127L129.459 63.9032C127.768 68.3319 124.977 70.4522 120.87 70.4522H116.441ZM161.533 30.8898V36.3384H155.762V51.1005C155.762 53.1135 156.433 53.7845 158.634 53.7845H161.533V59.233H157.453C151.683 59.233 148.972 56.9516 148.972 52.0935V36.3384H144.033V30.8898H148.972V23.1598H155.762V30.8898H161.533ZM165.8 59.233V30.8898H172.564V59.233H165.8ZM169.182 26.6759C166.874 26.6759 165.129 25.0118 165.129 22.8109C165.129 20.6369 166.874 18.9728 169.182 18.9728C171.491 18.9728 173.235 20.6369 173.235 22.8109C173.235 25.0118 171.491 26.6759 169.182 26.6759ZM191.111 59.8772C182.817 59.8772 177.261 53.8382 177.261 45.0883C177.261 36.3384 182.817 30.2456 191.111 30.2456C198.223 30.2456 203.377 34.7279 203.967 41.0354H197.338C196.828 38.0025 194.707 35.8821 191.191 35.8821C186.763 35.8821 184.105 39.4787 184.105 45.0883C184.105 50.671 186.736 54.2408 191.191 54.2408C194.734 54.2408 196.64 52.2009 197.284 49.0606H203.967C203.484 55.2607 198.277 59.8772 191.111 59.8772ZM219.642 59.904C212.744 59.904 207.617 56.5759 207.188 50.4831H213.871C214.166 53.2477 216.153 54.8312 219.534 54.8312C222.809 54.8312 224.795 53.4087 224.795 51.3957C224.795 49.6779 223.319 48.6848 220.93 48.1749L216.099 47.1818C210.677 46.0545 207.832 43.29 207.832 38.9955C207.832 33.7885 212.314 30.2725 219.239 30.2725C226.11 30.2725 230.807 33.8959 230.968 39.7202H224.607C224.554 37.1972 222.487 35.3453 219.4 35.3453C216.421 35.3453 214.596 36.8483 214.596 38.7808C214.596 40.4717 215.992 41.5185 218.354 42.0285L223.453 43.0752C229.063 44.2562 231.666 46.7255 231.666 50.8857C231.666 56.4148 226.647 59.904 219.642 59.904Z" fill="black"/>
<rect x="253.224" y="25.4984" width="6.16621" height="27.4693" fill="#DADADA"/>
<rect x="270.042" y="36.15" width="6.16621" height="27.4693" transform="rotate(90 270.042 36.15)" fill="#DADADA"/>
<path d="M299.978 59.8772C288.947 59.8772 281.136 51.7446 281.136 39.2639C281.136 26.7027 288.947 18.597 299.978 18.597C308.996 18.597 315.867 24.2066 317.209 32.9565H309.989C308.916 27.8569 305.158 24.9581 300.032 24.9581C292.704 24.9581 288.276 30.6214 288.276 39.2639C288.276 47.8528 292.677 53.5161 300.032 53.5161C305.131 53.5161 308.889 50.6442 310.016 45.5714H317.209C315.867 54.2944 308.996 59.8772 299.978 59.8772ZM329.744 59.233V30.8898H321.692V25.4412H322.926C327.516 25.4412 330.066 23.5624 330.576 19.268H336.588V59.233H329.744Z" fill="url(#paint0_linear_1_1473)"/>
<path d="M347.085 3.38629C347.158 3.07559 347.886 3.07559 347.959 3.38629C348.219 4.49466 348.582 5.44762 349.089 6.31522C350.222 8.25449 351.836 9.86872 353.775 11.0019C354.643 11.5089 355.596 11.8718 356.704 12.1316C357.015 12.2044 357.015 12.9322 356.704 13.005C355.596 13.2648 354.643 13.6277 353.775 14.1347C351.836 15.2679 350.222 16.8821 349.089 18.8214C348.582 19.689 348.219 20.642 347.959 21.7503C347.886 22.061 347.158 22.061 347.085 21.7503C346.826 20.642 346.463 19.689 345.956 18.8214C344.823 16.8821 343.208 15.2679 341.269 14.1347C340.401 13.6277 339.449 13.2648 338.34 13.005C338.029 12.9322 338.029 12.2044 338.34 12.1316C339.449 11.8718 340.401 11.5089 341.269 11.0019C343.208 9.86872 344.823 8.25449 345.956 6.31522C346.463 5.44762 346.826 4.49466 347.085 3.38629Z" fill="#8471FF"/>
<defs>
<linearGradient id="paint0_linear_1_1473" x1="309.704" y1="19.233" x2="309.704" y2="59.233" gradientUnits="userSpaceOnUse">
<stop stop-color="#7E6AFF"/>
<stop offset="1" stop-color="#AA9DFF"/>
</linearGradient>
</defs>
</svg>
