<svg width="334" height="18" viewBox="0 0 334 18" fill="none" xmlns="http://www.w3.org/2000/svg">
<path d="M14.3556 12.9838L10.5 6.55567V2.99817H11C11.1326 2.99817 11.2598 2.94549 11.3536 2.85172C11.4473 2.75795 11.5 2.63078 11.5 2.49817C11.5 2.36556 11.4473 2.23838 11.3536 2.14462C11.2598 2.05085 11.1326 1.99817 11 1.99817H6.00001C5.86741 1.99817 5.74023 2.05085 5.64646 2.14462C5.55269 2.23838 5.50001 2.36556 5.50001 2.49817C5.50001 2.63078 5.55269 2.75795 5.64646 2.85172C5.74023 2.94549 5.86741 2.99817 6.00001 2.99817H6.50001V6.55567L2.64439 12.9838C2.55345 13.1354 2.50434 13.3084 2.50204 13.4852C2.49974 13.6619 2.54435 13.8362 2.63131 13.9901C2.71827 14.144 2.84449 14.2721 2.99709 14.3614C3.14969 14.4506 3.32323 14.4978 3.50001 14.4982H13.5C13.677 14.4982 13.8507 14.4512 14.0036 14.3621C14.1565 14.273 14.2829 14.1449 14.3701 13.9909C14.4573 13.8369 14.5021 13.6626 14.4999 13.4856C14.4977 13.3087 14.4485 13.1355 14.3575 12.9838H14.3556ZM8.72564 10.3019C7.73126 9.79879 6.78501 9.53192 5.89939 9.50129L7.42876 6.95129C7.47553 6.87378 7.50017 6.78494 7.50001 6.69442V2.99817H9.50001V6.69442C9.49986 6.78494 9.5245 6.87378 9.57126 6.95129L11.96 10.9357C11.2125 11.0819 10.1431 11.0194 8.72564 10.3019Z" fill="#8472FF"/>
<path d="M18.8906 4.10754V2.85754H27.875V4.10754H24.0938V14.4982H22.6875V4.10754H18.8906ZM30.5781 9.67004V14.4982H29.25V2.85754H30.5781V7.40442C31.1484 6.50598 31.9766 6.09192 33 6.09192C34.6641 6.09192 36.0312 7.17786 36.0312 9.37317V14.4982H34.7031V9.46692C34.7031 8.03723 33.9844 7.31067 32.75 7.31067C31.5469 7.31067 30.5781 8.00598 30.5781 9.67004ZM38 14.4982V6.24817H39.3281V14.4982H38ZM38.6641 4.63879C38.1641 4.63879 37.7578 4.23254 37.7578 3.73254C37.7578 3.23254 38.1641 2.82629 38.6641 2.82629C39.1641 2.82629 39.5703 3.23254 39.5703 3.73254C39.5703 4.23254 39.1641 4.63879 38.6641 4.63879ZM44.1719 14.6857C42.4062 14.6857 41.0156 13.8263 40.9062 12.0294H42.2188C42.3125 13.0138 42.9844 13.545 44.1406 13.545C45.2812 13.545 45.9922 13.0138 45.9922 12.2794C45.9922 11.6544 45.4844 11.295 44.75 11.1232L43.4219 10.8107C41.8906 10.4513 41.0938 9.67004 41.0938 8.46692C41.0938 7.06067 42.3203 6.06067 44.0859 6.06067C45.8047 6.06067 47.0938 7.07629 47.1406 8.71692H45.8438C45.8281 7.84192 45.1484 7.20129 44.0859 7.20129C43.0703 7.20129 42.4219 7.76379 42.4219 8.46692C42.4219 9.09192 42.9062 9.45911 43.7031 9.64661L45.0312 9.95911C46.6094 10.3341 47.3281 11.0607 47.3281 12.2482C47.3281 13.7794 45.9688 14.6857 44.1719 14.6857ZM52.8906 14.4982V6.24817H54.2188V14.4982H52.8906ZM53.5547 4.63879C53.0547 4.63879 52.6484 4.23254 52.6484 3.73254C52.6484 3.23254 53.0547 2.82629 53.5547 2.82629C54.0547 2.82629 54.4609 3.23254 54.4609 3.73254C54.4609 4.23254 54.0547 4.63879 53.5547 4.63879ZM59.0625 14.6857C57.2969 14.6857 55.9062 13.8263 55.7969 12.0294H57.1094C57.2031 13.0138 57.875 13.545 59.0312 13.545C60.1719 13.545 60.8828 13.0138 60.8828 12.2794C60.8828 11.6544 60.375 11.295 59.6406 11.1232L58.3125 10.8107C56.7812 10.4513 55.9844 9.67004 55.9844 8.46692C55.9844 7.06067 57.2109 6.06067 58.9766 6.06067C60.6953 6.06067 61.9844 7.07629 62.0312 8.71692H60.7344C60.7188 7.84192 60.0391 7.20129 58.9766 7.20129C57.9609 7.20129 57.3125 7.76379 57.3125 8.46692C57.3125 9.09192 57.7969 9.45911 58.5938 9.64661L59.9219 9.95911C61.5 10.3341 62.2188 11.0607 62.2188 12.2482C62.2188 13.7794 60.8594 14.6857 59.0625 14.6857ZM70.2969 14.6232C68.6562 14.6232 67.4219 13.7716 67.4219 12.1232C67.4219 10.2325 69.0469 9.88879 70.7031 9.67004C72.2734 9.45911 72.7812 9.52161 72.7812 8.88879V8.81067C72.7812 7.91223 72.1094 7.26379 70.9531 7.26379C69.8047 7.26379 69.0078 7.89661 68.9453 8.71692H67.5938C67.6641 7.20911 69 6.09192 70.9531 6.09192C72.875 6.09192 74.0938 7.17786 74.0938 8.81067V14.4982H72.7812V13.3263H72.75C72.4453 13.92 71.7969 14.6232 70.2969 14.6232ZM70.4844 13.4357C72.1094 13.4357 72.7812 12.4513 72.7812 11.3732V10.3419C72.5781 10.5294 71.5859 10.6779 70.6406 10.8107C69.6875 10.9435 68.7812 11.2716 68.7812 12.2013C68.7812 12.9747 69.4297 13.4357 70.4844 13.4357ZM83.4688 14.6857C81.0469 14.6857 79.6406 12.8732 79.6406 10.3888C79.6406 7.88098 81.1875 6.06067 83.375 6.06067C85.6719 6.06067 87.125 7.82629 87.125 10.3888V10.756H80.9531C81.0156 12.3732 81.9062 13.4825 83.4688 13.4825C84.6406 13.4825 85.4062 12.8888 85.6562 12.0294H86.9844C86.6719 13.6075 85.2656 14.6857 83.4688 14.6857ZM80.9688 9.61536H85.7969C85.6562 8.16223 84.7344 7.24817 83.375 7.24817C82.0234 7.24817 81.1094 8.16223 80.9688 9.61536ZM87.4219 14.4982L90.5 10.295L87.6016 6.24817H89.1641L90.2812 7.87317C90.6172 8.35754 90.9375 8.83411 91.2578 9.31848C91.5859 8.83411 91.9141 8.35754 92.25 7.87317L93.3828 6.24817H94.9219L92.0234 10.2872L95.0625 14.4982H93.5078L92.1953 12.6232C91.875 12.1622 91.5625 11.7091 91.25 11.2482C90.9375 11.7091 90.6172 12.1622 90.2969 12.6232L88.9688 14.4982H87.4219ZM96.2812 17.7638V6.24817H97.5781V7.46692H97.5938C98.125 6.54504 99.1328 6.09192 100.203 6.09192C102.352 6.09192 103.781 7.82629 103.781 10.3732C103.781 12.9122 102.352 14.6544 100.203 14.6544C99.1328 14.6544 98.2188 14.2013 97.625 13.2482H97.6094V17.7638H96.2812ZM100 13.4591C101.43 13.4591 102.438 12.3966 102.438 10.3732C102.438 8.34973 101.43 7.27942 100 7.27942C98.4688 7.27942 97.5 8.50598 97.5 10.3732C97.5 12.2404 98.4688 13.4591 100 13.4591ZM108.734 14.6857C106.312 14.6857 104.906 12.8732 104.906 10.3888C104.906 7.88098 106.453 6.06067 108.641 6.06067C110.938 6.06067 112.391 7.82629 112.391 10.3888V10.756H106.219C106.281 12.3732 107.172 13.4825 108.734 13.4825C109.906 13.4825 110.672 12.8888 110.922 12.0294H112.25C111.938 13.6075 110.531 14.6857 108.734 14.6857ZM106.234 9.61536H111.062C110.922 8.16223 110 7.24817 108.641 7.24817C107.289 7.24817 106.375 8.16223 106.234 9.61536ZM113.906 14.4982V6.24817H115.172V7.54504H115.203C115.508 6.69348 116.156 6.12317 117.188 6.12317C117.43 6.12317 117.641 6.15442 117.75 6.17004V7.49817C117.641 7.46692 117.32 7.40442 116.938 7.40442C116.023 7.40442 115.234 8.02161 115.234 9.42004V14.4982H113.906ZM119.062 14.4982V6.24817H120.391V14.4982H119.062ZM119.727 4.63879C119.227 4.63879 118.82 4.23254 118.82 3.73254C118.82 3.23254 119.227 2.82629 119.727 2.82629C120.227 2.82629 120.633 3.23254 120.633 3.73254C120.633 4.23254 120.227 4.63879 119.727 4.63879ZM122.359 14.4982V6.24817H123.656V7.58411C124.18 6.61536 125.094 6.09192 126.102 6.09192C127.234 6.09192 128.125 6.74817 128.469 7.57629C128.922 6.73254 129.844 6.09192 131.07 6.09192C132.578 6.09192 133.812 7.06067 133.812 9.09192V14.4982H132.484V9.09192C132.484 7.81067 131.641 7.31067 130.695 7.31067C129.484 7.31067 128.75 8.13098 128.75 9.24817V14.4982H127.422V8.95129C127.422 7.96692 126.68 7.31067 125.68 7.31067C124.641 7.31067 123.688 8.04504 123.688 9.46692V14.4982H122.359ZM139.188 14.6857C136.766 14.6857 135.359 12.8732 135.359 10.3888C135.359 7.88098 136.906 6.06067 139.094 6.06067C141.391 6.06067 142.844 7.82629 142.844 10.3888V10.756H136.672C136.734 12.3732 137.625 13.4825 139.188 13.4825C140.359 13.4825 141.125 12.8888 141.375 12.0294H142.703C142.391 13.6075 140.984 14.6857 139.188 14.6857ZM136.688 9.61536H141.516C141.375 8.16223 140.453 7.24817 139.094 7.24817C137.742 7.24817 136.828 8.16223 136.688 9.61536ZM145.688 9.67004V14.4982H144.359V6.24817H145.656V7.45911C146.227 6.52161 147.062 6.09192 148.109 6.09192C149.773 6.09192 151.141 7.17786 151.141 9.37317V14.4982H149.812V9.46692C149.812 8.03723 149.094 7.31067 147.859 7.31067C146.656 7.31067 145.688 8.00598 145.688 9.67004ZM156.711 6.24817V7.38879H155.039V12.4982C155.039 13.1388 155.266 13.3575 155.945 13.3575H156.711V14.4982H155.82C154.406 14.4982 153.711 13.881 153.711 12.6388V7.38879H152.242V6.24817H153.711V3.99817H155.039V6.24817H156.711ZM166.016 14.6544C164.945 14.6544 164 14.2013 163.406 13.2482H163.391V14.4982H162.094V2.85754H163.422V7.46692H163.438C163.969 6.54504 164.945 6.09192 166.016 6.09192C168.164 6.09192 169.594 7.82629 169.594 10.3732C169.594 12.9122 168.164 14.6544 166.016 14.6544ZM165.812 13.4591C167.242 13.4591 168.25 12.3966 168.25 10.3732C168.25 8.34973 167.242 7.27942 165.812 7.27942C164.281 7.27942 163.312 8.50598 163.312 10.3732C163.312 12.2404 164.281 13.4591 165.812 13.4591ZM174.172 14.6544C172.508 14.6544 171.141 13.5685 171.141 11.3732V6.24817H172.469V11.2794C172.469 12.7091 173.188 13.4357 174.422 13.4357C175.625 13.4357 176.594 12.7404 176.594 11.0763V6.24817H177.922V14.4982H176.625V13.2872C176.055 14.2247 175.219 14.6544 174.172 14.6544ZM179.891 14.4982V6.24817H181.219V14.4982H179.891ZM180.555 4.63879C180.055 4.63879 179.648 4.23254 179.648 3.73254C179.648 3.23254 180.055 2.82629 180.555 2.82629C181.055 2.82629 181.461 3.23254 181.461 3.73254C181.461 4.23254 181.055 4.63879 180.555 4.63879ZM184.516 2.85754V14.4982H183.188V2.85754H184.516ZM190.164 6.24817V7.38879H188.492V12.4982C188.492 13.1388 188.719 13.3575 189.398 13.3575H190.164V14.4982H189.273C187.859 14.4982 187.164 13.881 187.164 12.6388V7.38879H185.695V6.24817H187.164V3.99817H188.492V6.24817H190.164ZM195.547 14.4982V6.24817H196.875V14.4982H195.547ZM196.211 4.63879C195.711 4.63879 195.305 4.23254 195.305 3.73254C195.305 3.23254 195.711 2.82629 196.211 2.82629C196.711 2.82629 197.117 3.23254 197.117 3.73254C197.117 4.23254 196.711 4.63879 196.211 4.63879ZM200.172 9.67004V14.4982H198.844V6.24817H200.141V7.45911C200.711 6.52161 201.547 6.09192 202.594 6.09192C204.258 6.09192 205.625 7.17786 205.625 9.37317V14.4982H204.297V9.46692C204.297 8.03723 203.578 7.31067 202.344 7.31067C201.141 7.31067 200.172 8.00598 200.172 9.67004Z" fill="black" fill-opacity="0.4"/>
<path d="M211 4.10754V2.85754H219.984V4.10754H216.203V14.4982H214.797V4.10754H211ZM222.688 9.67004V14.4982H221.359V2.85754H222.688V7.40442C223.258 6.50598 224.086 6.09192 225.109 6.09192C226.773 6.09192 228.141 7.17786 228.141 9.37317V14.4982H226.812V9.46692C226.812 8.03723 226.094 7.31067 224.859 7.31067C223.656 7.31067 222.688 8.00598 222.688 9.67004ZM233.516 14.6857C231.094 14.6857 229.688 12.8732 229.688 10.3888C229.688 7.88098 231.234 6.06067 233.422 6.06067C235.719 6.06067 237.172 7.82629 237.172 10.3888V10.756H231C231.062 12.3732 231.953 13.4825 233.516 13.4825C234.688 13.4825 235.453 12.8888 235.703 12.0294H237.031C236.719 13.6075 235.312 14.6857 233.516 14.6857ZM231.016 9.61536H235.844C235.703 8.16223 234.781 7.24817 233.422 7.24817C232.07 7.24817 231.156 8.16223 231.016 9.61536ZM241.562 14.6857C239.797 14.6857 238.406 13.8263 238.297 12.0294H239.609C239.703 13.0138 240.375 13.545 241.531 13.545C242.672 13.545 243.383 13.0138 243.383 12.2794C243.383 11.6544 242.875 11.295 242.141 11.1232L240.812 10.8107C239.281 10.4513 238.484 9.67004 238.484 8.46692C238.484 7.06067 239.711 6.06067 241.477 6.06067C243.195 6.06067 244.484 7.07629 244.531 8.71692H243.234C243.219 7.84192 242.539 7.20129 241.477 7.20129C240.461 7.20129 239.812 7.76379 239.812 8.46692C239.812 9.09192 240.297 9.45911 241.094 9.64661L242.422 9.95911C244 10.3341 244.719 11.0607 244.719 12.2482C244.719 13.7794 243.359 14.6857 241.562 14.6857ZM246.109 17.7638V16.5919H246.922C247.43 16.5919 247.773 16.2872 248.039 15.5997L248.492 14.4279L245.297 6.24817H246.734L248.516 10.9982C248.75 11.6154 248.969 12.2325 249.18 12.8497C249.398 12.2325 249.625 11.6154 249.852 10.9982L251.602 6.24817H253.016L249.211 16.0294C248.781 17.1388 247.961 17.7638 246.922 17.7638H246.109ZM256.953 14.6857C255.188 14.6857 253.797 13.8263 253.688 12.0294H255C255.094 13.0138 255.766 13.545 256.922 13.545C258.062 13.545 258.773 13.0138 258.773 12.2794C258.773 11.6544 258.266 11.295 257.531 11.1232L256.203 10.8107C254.672 10.4513 253.875 9.67004 253.875 8.46692C253.875 7.06067 255.102 6.06067 256.867 6.06067C258.586 6.06067 259.875 7.07629 259.922 8.71692H258.625C258.609 7.84192 257.93 7.20129 256.867 7.20129C255.852 7.20129 255.203 7.76379 255.203 8.46692C255.203 9.09192 255.688 9.45911 256.484 9.64661L257.812 9.95911C259.391 10.3341 260.109 11.0607 260.109 12.2482C260.109 13.7794 258.75 14.6857 256.953 14.6857ZM269.438 14.4982H265.844V2.85754H269.594C272.984 2.85754 275.016 5.04504 275.016 8.65442C275.016 12.295 272.984 14.4982 269.438 14.4982ZM267.25 13.2482H269.344C272.234 13.2482 273.609 11.4982 273.609 8.65442C273.609 5.84192 272.234 4.10754 269.5 4.10754H267.25V13.2482ZM280.109 14.6857C277.688 14.6857 276.281 12.8732 276.281 10.3888C276.281 7.88098 277.828 6.06067 280.016 6.06067C282.312 6.06067 283.766 7.82629 283.766 10.3888V10.756H277.594C277.656 12.3732 278.547 13.4825 280.109 13.4825C281.281 13.4825 282.047 12.8888 282.297 12.0294H283.625C283.312 13.6075 281.906 14.6857 280.109 14.6857ZM277.609 9.61536H282.438C282.297 8.16223 281.375 7.24817 280.016 7.24817C278.664 7.24817 277.75 8.16223 277.609 9.61536ZM285.281 14.4982V6.24817H286.578V7.58411C287.102 6.61536 288.016 6.09192 289.023 6.09192C290.156 6.09192 291.047 6.74817 291.391 7.57629C291.844 6.73254 292.766 6.09192 293.992 6.09192C295.5 6.09192 296.734 7.06067 296.734 9.09192V14.4982H295.406V9.09192C295.406 7.81067 294.562 7.31067 293.617 7.31067C292.406 7.31067 291.672 8.13098 291.672 9.24817V14.4982H290.344V8.95129C290.344 7.96692 289.602 7.31067 288.602 7.31067C287.562 7.31067 286.609 8.04504 286.609 9.46692V14.4982H285.281ZM302.109 14.6857C299.82 14.6857 298.281 12.9044 298.281 10.3888C298.281 7.85754 299.82 6.06067 302.109 6.06067C304.398 6.06067 305.938 7.85754 305.938 10.3888C305.938 12.9044 304.398 14.6857 302.109 14.6857ZM302.109 13.4825C303.672 13.4825 304.594 12.256 304.594 10.3888C304.594 8.50598 303.664 7.26379 302.109 7.26379C300.555 7.26379 299.625 8.49817 299.625 10.3888C299.625 12.2638 300.547 13.4825 302.109 13.4825ZM310.359 14.6857C308.594 14.6857 307.203 13.8263 307.094 12.0294H308.406C308.5 13.0138 309.172 13.545 310.328 13.545C311.469 13.545 312.18 13.0138 312.18 12.2794C312.18 11.6544 311.672 11.295 310.938 11.1232L309.609 10.8107C308.078 10.4513 307.281 9.67004 307.281 8.46692C307.281 7.06067 308.508 6.06067 310.273 6.06067C311.992 6.06067 313.281 7.07629 313.328 8.71692H312.031C312.016 7.84192 311.336 7.20129 310.273 7.20129C309.258 7.20129 308.609 7.76379 308.609 8.46692C308.609 9.09192 309.094 9.45911 309.891 9.64661L311.219 9.95911C312.797 10.3341 313.516 11.0607 313.516 12.2482C313.516 13.7794 312.156 14.6857 310.359 14.6857ZM326.438 14.4982L325.562 13.6232L327.211 11.9825C327.875 11.3263 328.609 10.631 329.297 9.99036C328.82 10.0138 328.336 10.0294 327.859 10.0294H319.844V8.77942H327.859C328.336 8.77942 328.82 8.79504 329.297 8.81848C328.609 8.17786 327.875 7.48254 327.211 6.82629L325.562 5.18567L326.438 4.31067L331.531 9.40442L326.438 14.4982Z" fill="black"/>
</svg>
