<svg width="32" height="32" viewBox="0 0 32 32" fill="none" xmlns="http://www.w3.org/2000/svg">
<rect width="32" height="32" rx="6" fill="black" fill-opacity="0.04"/>
<path d="M13.1341 23.7778C12.9987 23.7778 12.8889 23.6582 12.8889 23.5108V15.272C12.8889 15.1246 12.9987 15.005 13.1341 15.005H15.0479C15.1833 15.005 15.293 14.8855 15.293 14.738L15.293 12.5436C15.293 12.3961 15.1833 12.2766 15.0479 12.2766H13.1341C12.9987 12.2766 12.8889 12.157 12.8889 12.0096V8.48924C12.8889 8.34177 12.9987 8.22223 13.1341 8.22223H15.4301C15.5655 8.22223 15.6752 8.34177 15.6752 8.48924V11.8761C15.6752 12.0235 15.785 12.1431 15.9204 12.1431H18.866C19.0014 12.1431 19.1111 12.2626 19.1111 12.4101V14.738C19.1111 14.8855 19.0014 15.005 18.866 15.005H15.9204C15.785 15.005 15.6752 15.1246 15.6752 15.272V23.5108C15.6752 23.6582 15.5655 23.7778 15.4301 23.7778H13.1341Z" fill="black" fill-opacity="0.2"/>
</svg>
